<svg width="175" height="27" viewBox="0 0 175 27" fill="none" xmlns="http://www.w3.org/2000/svg">
    <path d="M0 26.0215V0H9.09735C10.91 0 12.4051 0.31341 13.5825 0.940229C14.7599 1.55858 15.6366 2.39292 16.2126 3.44327C16.7886 4.48514 17.0766 5.64137 17.0766 6.91195C17.0766 8.03006 16.8775 8.95335 16.4794 9.68181C16.0898 10.4103 15.5731 10.9863 14.9293 11.4098C14.294 11.8333 13.6037 12.1467 12.8583 12.35V12.6041C13.6545 12.655 14.455 12.9345 15.2597 13.4427C16.0644 13.951 16.7378 14.6794 17.2799 15.6281C17.822 16.5768 18.093 17.7373 18.093 19.1095C18.093 20.414 17.7966 21.5871 17.2036 22.629C16.6107 23.6709 15.6747 24.4968 14.3957 25.1066C13.1166 25.7165 11.4522 26.0215 9.40228 26.0215H0ZM3.15104 23.2262H9.40228C11.4606 23.2262 12.9218 22.8281 13.7858 22.0318C14.6582 21.2271 15.0945 20.253 15.0945 19.1095C15.0945 18.2286 14.87 17.4154 14.4211 16.67C13.9721 15.9161 13.3326 15.3147 12.5025 14.8658C11.6724 14.4084 10.6898 14.1797 9.55475 14.1797H3.15104V23.2262ZM3.15104 11.4352H8.9957C9.9444 11.4352 10.7999 11.2489 11.5623 10.8762C12.3331 10.5035 12.943 9.97828 13.3919 9.30064C13.8493 8.623 14.078 7.82677 14.078 6.91195C14.078 5.76843 13.6799 4.79855 12.8837 4.00232C12.0874 3.19762 10.8253 2.79527 9.09735 2.79527H3.15104V11.4352Z" fill="#272343"/>
    <path d="M28.6071 26.4789C27.3704 26.4789 26.248 26.2459 25.24 25.78C24.2321 25.3057 23.4316 24.6238 22.8387 23.7344C22.2457 22.8365 21.9492 21.7523 21.9492 20.4817C21.9492 19.3636 22.1695 18.4573 22.61 17.7627C23.0504 17.0596 23.6391 16.5091 24.3761 16.1109C25.113 15.7128 25.9262 15.4164 26.8156 15.2215C27.7134 15.0182 28.6156 14.8573 29.5219 14.7387C30.7078 14.5862 31.6692 14.4719 32.4061 14.3957C33.1515 14.311 33.6936 14.1712 34.0325 13.9764C34.3797 13.7815 34.5534 13.4427 34.5534 12.9599V12.8583C34.5534 11.6046 34.2103 10.6305 33.5242 9.93593C32.8466 9.24134 31.8174 8.89405 30.4367 8.89405C29.0052 8.89405 27.8829 9.20746 27.0697 9.83428C26.2565 10.4611 25.6848 11.1303 25.3544 11.8418L22.5083 10.8253C23.0165 9.63946 23.6942 8.71617 24.5412 8.05547C25.3968 7.3863 26.3285 6.92042 27.3365 6.65783C28.353 6.38678 29.3525 6.25125 30.3351 6.25125C30.9619 6.25125 31.6819 6.32748 32.4951 6.47995C33.3167 6.62395 34.1087 6.92465 34.871 7.38206C35.6419 7.83947 36.2814 8.52982 36.7896 9.45311C37.2978 10.3764 37.552 11.6131 37.552 13.1632V26.0215H34.5534V23.3787H34.4009C34.1976 23.8022 33.8588 24.2554 33.3845 24.7382C32.9101 25.221 32.2791 25.6318 31.4913 25.9706C30.7035 26.3095 29.7421 26.4789 28.6071 26.4789ZM29.0645 23.7852C30.2504 23.7852 31.2499 23.5523 32.0631 23.0864C32.8847 22.6205 33.503 22.0191 33.9181 21.2822C34.3416 20.5453 34.5534 19.7702 34.5534 18.957V16.2126C34.4263 16.3651 34.1468 16.5048 33.7148 16.6319C33.2913 16.7505 32.8 16.8563 32.2409 16.9495C31.6904 17.0342 31.1525 17.1105 30.6273 17.1782C30.1106 17.2375 29.6913 17.2883 29.3694 17.3307C28.5901 17.4323 27.8617 17.5975 27.184 17.8262C26.5149 18.0465 25.9727 18.381 25.5577 18.83C25.1511 19.2704 24.9478 19.8719 24.9478 20.6342C24.9478 21.6761 25.3332 22.4638 26.104 22.9975C26.8833 23.5227 27.8701 23.7852 29.0645 23.7852Z" fill="#272343"/>
    <path d="M46.0235 14.2813V26.0215H43.025V6.50536H45.9219V9.55475H46.176C46.6334 8.5637 47.328 7.76747 48.2598 7.16607C49.1915 6.55619 50.3943 6.25125 51.8682 6.25125C53.1896 6.25125 54.3458 6.52231 55.3369 7.06442C56.3279 7.59806 57.0988 8.41123 57.6493 9.50393C58.1999 10.5882 58.4752 11.9604 58.4752 13.6206V26.0215H55.4766V13.8239C55.4766 12.2907 55.0785 11.0964 54.2823 10.2409C53.4861 9.37687 52.3934 8.94488 51.0042 8.94488C50.047 8.94488 49.1915 9.1524 48.4376 9.56746C47.6922 9.98252 47.1035 10.5882 46.6715 11.3844C46.2395 12.1806 46.0235 13.1463 46.0235 14.2813Z" fill="#272343"/>
    <path d="M69.6976 26.4789C68.4609 26.4789 67.3386 26.2459 66.3306 25.78C65.3226 25.3057 64.5221 24.6238 63.9292 23.7344C63.3362 22.8365 63.0398 21.7523 63.0398 20.4817C63.0398 19.3636 63.26 18.4573 63.7005 17.7627C64.1409 17.0596 64.7296 16.5091 65.4666 16.1109C66.2035 15.7128 67.0167 15.4164 67.9061 15.2215C68.804 15.0182 69.7061 14.8573 70.6124 14.7387C71.7983 14.5862 72.7597 14.4719 73.4966 14.3957C74.242 14.311 74.7842 14.1712 75.123 13.9764C75.4703 13.7815 75.6439 13.4427 75.6439 12.9599V12.8583C75.6439 11.6046 75.3009 10.6305 74.6147 9.93593C73.9371 9.24134 72.9079 8.89405 71.5272 8.89405C70.0957 8.89405 68.9734 9.20746 68.1602 9.83428C67.347 10.4611 66.7753 11.1303 66.4449 11.8418L63.5988 10.8253C64.1071 9.63946 64.7847 8.71617 65.6318 8.05547C66.4873 7.3863 67.419 6.92042 68.427 6.65783C69.4435 6.38678 70.443 6.25125 71.4256 6.25125C72.0524 6.25125 72.7724 6.32748 73.5856 6.47995C74.4072 6.62395 75.1992 6.92465 75.9616 7.38206C76.7324 7.83947 77.3719 8.52982 77.8801 9.45311C78.3884 10.3764 78.6425 11.6131 78.6425 13.1632V26.0215H75.6439V23.3787H75.4914C75.2881 23.8022 74.9493 24.2554 74.475 24.7382C74.0006 25.221 73.3696 25.6318 72.5818 25.9706C71.7941 26.3095 70.8326 26.4789 69.6976 26.4789ZM70.155 23.7852C71.3409 23.7852 72.3404 23.5523 73.1536 23.0864C73.9752 22.6205 74.5936 22.0191 75.0086 21.2822C75.4321 20.5453 75.6439 19.7702 75.6439 18.957V16.2126C75.5169 16.3651 75.2373 16.5048 74.8053 16.6319C74.3818 16.7505 73.8905 16.8563 73.3315 16.9495C72.7809 17.0342 72.243 17.1105 71.7178 17.1782C71.2011 17.2375 70.7818 17.2883 70.46 17.3307C69.6807 17.4323 68.9522 17.5975 68.2746 17.8262C67.6054 18.0465 67.0633 18.381 66.6482 18.83C66.2416 19.2704 66.0383 19.8719 66.0383 20.6342C66.0383 21.6761 66.4238 22.4638 67.1946 22.9975C67.9739 23.5227 68.9607 23.7852 70.155 23.7852Z" fill="#272343"/>
    <path d="M87.1141 14.2813V26.0215H84.1155V6.50536H87.0124V9.55475H87.2665C87.7239 8.5637 88.4185 7.76747 89.3503 7.16607C90.282 6.55619 91.4849 6.25125 92.9587 6.25125C94.2801 6.25125 95.4364 6.52231 96.4274 7.06442C97.4185 7.59806 98.1893 8.41123 98.7399 9.50393C99.2905 10.5882 99.5657 11.9604 99.5657 13.6206V26.0215H96.5672V13.8239C96.5672 12.2907 96.1691 11.0964 95.3728 10.2409C94.5766 9.37687 93.4839 8.94488 92.0947 8.94488C91.1376 8.94488 90.282 9.1524 89.5282 9.56746C88.7828 9.98252 88.1941 10.5882 87.7621 11.3844C87.3301 12.1806 87.1141 13.1463 87.1141 14.2813Z" fill="#272343"/>
    <path d="M110.788 26.4789C109.551 26.4789 108.429 26.2459 107.421 25.78C106.413 25.3057 105.613 24.6238 105.02 23.7344C104.427 22.8365 104.13 21.7523 104.13 20.4817C104.13 19.3636 104.351 18.4573 104.791 17.7627C105.231 17.0596 105.82 16.5091 106.557 16.1109C107.294 15.7128 108.107 15.4164 108.997 15.2215C109.894 15.0182 110.797 14.8573 111.703 14.7387C112.889 14.5862 113.85 14.4719 114.587 14.3957C115.333 14.311 115.875 14.1712 116.213 13.9764C116.561 13.7815 116.734 13.4427 116.734 12.9599V12.8583C116.734 11.6046 116.391 10.6305 115.705 9.93593C115.028 9.24134 113.998 8.89405 112.618 8.89405C111.186 8.89405 110.064 9.20746 109.251 9.83428C108.438 10.4611 107.866 11.1303 107.535 11.8418L104.689 10.8253C105.198 9.63946 105.875 8.71617 106.722 8.05547C107.578 7.3863 108.51 6.92042 109.518 6.65783C110.534 6.38678 111.534 6.25125 112.516 6.25125C113.143 6.25125 113.863 6.32748 114.676 6.47995C115.498 6.62395 116.29 6.92465 117.052 7.38206C117.823 7.83947 118.462 8.52982 118.971 9.45311C119.479 10.3764 119.733 11.6131 119.733 13.1632V26.0215H116.734V23.3787H116.582C116.379 23.8022 116.04 24.2554 115.565 24.7382C115.091 25.221 114.46 25.6318 113.672 25.9706C112.885 26.3095 111.923 26.4789 110.788 26.4789ZM111.246 23.7852C112.431 23.7852 113.431 23.5523 114.244 23.0864C115.066 22.6205 115.684 22.0191 116.099 21.2822C116.523 20.5453 116.734 19.7702 116.734 18.957V16.2126C116.607 16.3651 116.328 16.5048 115.896 16.6319C115.472 16.7505 114.981 16.8563 114.422 16.9495C113.871 17.0342 113.334 17.1105 112.808 17.1782C112.292 17.2375 111.872 17.2883 111.55 17.3307C110.771 17.4323 110.043 17.5975 109.365 17.8262C108.696 18.0465 108.154 18.381 107.739 18.83C107.332 19.2704 107.129 19.8719 107.129 20.6342C107.129 21.6761 107.514 22.4638 108.285 22.9975C109.064 23.5227 110.051 23.7852 111.246 23.7852Z" fill="#272343"/>
    <path d="M124.139 26.0215V0H135.371C137.302 0 138.992 0.381174 140.44 1.14352C141.889 1.90587 143.015 2.97739 143.82 4.35809C144.625 5.73878 145.027 7.35242 145.027 9.19899C145.027 11.0625 144.612 12.6761 143.782 14.0399C142.96 15.4037 141.804 16.454 140.313 17.1909C138.831 17.9279 137.099 18.2963 135.117 18.2963H128.408V12.8074H133.693C134.524 12.8074 135.231 12.6634 135.815 12.3754C136.408 12.079 136.861 11.6597 137.175 11.1176C137.497 10.5755 137.658 9.93593 137.658 9.19899C137.658 8.45358 137.497 7.8183 137.175 7.29312C136.861 6.75948 136.408 6.35289 135.815 6.07337C135.231 5.78537 134.524 5.64137 133.693 5.64137H131.203V26.0215H124.139Z" fill="#272343"/>
    <path d="M152.285 26.3264C151.04 26.3264 149.939 26.1231 148.982 25.7165C148.033 25.3015 147.288 24.6746 146.745 23.8361C146.203 22.9975 145.932 21.9302 145.932 20.6342C145.932 19.5669 146.114 18.6563 146.479 17.9025C146.843 17.1401 147.351 16.5175 148.003 16.0347C148.656 15.5519 149.414 15.1834 150.278 14.9293C151.15 14.6752 152.09 14.51 153.098 14.4338C154.191 14.3491 155.068 14.2474 155.729 14.1288C156.398 14.0018 156.88 13.8281 157.177 13.6079C157.473 13.3792 157.622 13.0785 157.622 12.7058V12.655C157.622 12.1467 157.427 11.7571 157.037 11.486C156.648 11.215 156.148 11.0794 155.538 11.0794C154.869 11.0794 154.322 11.2277 153.899 11.5242C153.484 11.8121 153.234 12.2569 153.149 12.8583H146.695C146.779 11.6724 147.156 10.5797 147.826 9.58016C148.503 8.57217 149.49 7.76747 150.786 7.16607C152.082 6.55619 153.7 6.25125 155.64 6.25125C157.037 6.25125 158.291 6.41642 159.4 6.74678C160.51 7.06866 161.455 7.52183 162.234 8.10629C163.013 8.68229 163.606 9.35993 164.013 10.1392C164.428 10.91 164.635 11.7486 164.635 12.655V26.0215H158.079V23.277H157.927C157.537 24.0055 157.063 24.5942 156.504 25.0431C155.953 25.492 155.322 25.8182 154.61 26.0215C153.907 26.2247 153.132 26.3264 152.285 26.3264ZM154.572 21.9048C155.106 21.9048 155.606 21.7947 156.072 21.5744C156.546 21.3542 156.931 21.0366 157.228 20.6215C157.524 20.2064 157.672 19.7024 157.672 19.1095V17.4832C157.486 17.5594 157.287 17.6314 157.075 17.6992C156.872 17.7669 156.652 17.8305 156.415 17.8898C156.186 17.949 155.94 18.0041 155.678 18.0549C155.424 18.1057 155.157 18.1523 154.877 18.1947C154.335 18.2794 153.89 18.4192 153.543 18.614C153.204 18.8003 152.95 19.0333 152.781 19.3128C152.62 19.5839 152.539 19.8888 152.539 20.2276C152.539 20.7697 152.73 21.1848 153.111 21.4728C153.492 21.7608 153.979 21.9048 154.572 21.9048Z" fill="#272343"/>
    <path d="M175 0V26.0215H167.986V0H175Z" fill="#272343"/>
</svg>
